<svg width="11" height="11" viewBox="0 0 11 11" fill="none" xmlns="http://www.w3.org/2000/svg">
<path d="M0 5.5C0 6.95869 0.579463 8.35764 1.61091 9.38909C2.12163 9.89981 2.72795 10.3049 3.39524 10.5813C4.06253 10.8577 4.77773 11 5.5 11C6.95869 11 8.35764 10.4205 9.38909 9.38909C10.4205 8.35764 11 6.95869 11 5.5C11 4.77773 10.8577 4.06253 10.5813 3.39524C10.3049 2.72795 9.89981 2.12163 9.38909 1.61091C8.87837 1.10019 8.27205 0.695063 7.60476 0.418663C6.93747 0.142262 6.22227 0 5.5 0C4.77773 0 4.06253 0.142262 3.39524 0.418663C2.72795 0.695063 2.12163 1.10019 1.61091 1.61091C0.579463 2.64236 0 4.04131 0 5.5ZM1.1 5.5C1.1 4.33305 1.56357 3.21389 2.38873 2.38873C3.21389 1.56357 4.33305 1.1 5.5 1.1C6.66695 1.1 7.78611 1.56357 8.61127 2.38873C9.43643 3.21389 9.9 4.33305 9.9 5.5C9.9 6.66695 9.43643 7.78611 8.61127 8.61127C7.78611 9.43643 6.66695 9.9 5.5 9.9C4.33305 9.9 3.21389 9.43643 2.38873 8.61127C1.56357 7.78611 1.1 6.66695 1.1 5.5ZM4.4 8.25L7.15 5.5L4.4 2.75V8.25Z" fill="#273C57"/>
</svg>
