<svg width="28" height="30" viewBox="0 0 28 30" fill="none" xmlns="http://www.w3.org/2000/svg">
<path d="M24.8889 27V10.5H3.11111V27H24.8889ZM20.2222 0H23.3333V3H24.8889C25.714 3 26.5053 3.31607 27.0888 3.87868C27.6722 4.44129 28 5.20435 28 6V27C28 27.7956 27.6722 28.5587 27.0888 29.1213C26.5053 29.6839 25.714 30 24.8889 30H3.11111C1.38444 30 0 28.65 0 27V6C0 4.335 1.38444 3 3.11111 3H4.66667V0H7.77778V3H20.2222V0ZM6.22222 13.5H9.33333V16.5H6.22222V13.5ZM18.6667 13.5H21.7778V16.5H18.6667V13.5ZM12.4444 19.5H15.5556V22.5H12.4444V19.5ZM18.6667 19.5H21.7778V22.5H18.6667V19.5Z" fill="#273C57"/>
</svg>
