<svg width="42" height="42" viewBox="0 0 42 42" fill="none" xmlns="http://www.w3.org/2000/svg">
<circle cx="21" cy="21" r="21" fill="#FFAE02"/>
<path d="M9.6416 17H0.870117V15.2598L5.00977 10.8477C5.57812 10.2266 5.99707 9.68457 6.2666 9.22168C6.54199 8.75879 6.67969 8.31934 6.67969 7.90332C6.67969 7.33496 6.53613 6.88965 6.24902 6.56738C5.96191 6.23926 5.55176 6.0752 5.01855 6.0752C4.44434 6.0752 3.99023 6.27441 3.65625 6.67285C3.32812 7.06543 3.16406 7.58398 3.16406 8.22852H0.615234C0.615234 7.44922 0.799805 6.7373 1.16895 6.09277C1.54395 5.44824 2.07129 4.94434 2.75098 4.58105C3.43066 4.21191 4.20117 4.02734 5.0625 4.02734C6.38086 4.02734 7.40332 4.34375 8.12988 4.97656C8.8623 5.60938 9.22852 6.50293 9.22852 7.65723C9.22852 8.29004 9.06445 8.93457 8.73633 9.59082C8.4082 10.2471 7.8457 11.0117 7.04883 11.8848L4.13965 14.9521H9.6416V17Z" transform="translate(15 10)" fill="white"/>
</svg>
