<svg width="42" height="42" viewBox="0 0 42 42" fill="none" xmlns="http://www.w3.org/2000/svg">
<circle cx="21" cy="21" r="21" fill="#FFAE02"/>
<path d="M3.4541 9.47656H4.80762C5.45215 9.47656 5.92969 9.31543 6.24023 8.99316C6.55078 8.6709 6.70605 8.24316 6.70605 7.70996C6.70605 7.19434 6.55078 6.79297 6.24023 6.50586C5.93555 6.21875 5.51367 6.0752 4.97461 6.0752C4.48828 6.0752 4.08105 6.20996 3.75293 6.47949C3.4248 6.74316 3.26074 7.08887 3.26074 7.5166H0.720703C0.720703 6.84863 0.899414 6.25098 1.25684 5.72363C1.62012 5.19043 2.12402 4.77441 2.76855 4.47559C3.41895 4.17676 4.13379 4.02734 4.91309 4.02734C6.2666 4.02734 7.32715 4.35254 8.09473 5.00293C8.8623 5.64746 9.24609 6.53809 9.24609 7.6748C9.24609 8.26074 9.06738 8.7998 8.70996 9.29199C8.35254 9.78418 7.88379 10.1621 7.30371 10.4258C8.02441 10.6836 8.56055 11.0703 8.91211 11.5859C9.26953 12.1016 9.44824 12.7109 9.44824 13.4141C9.44824 14.5508 9.03223 15.4619 8.2002 16.1475C7.37402 16.833 6.27832 17.1758 4.91309 17.1758C3.63574 17.1758 2.58984 16.8389 1.77539 16.165C0.966797 15.4912 0.5625 14.6006 0.5625 13.4932H3.10254C3.10254 13.9736 3.28125 14.3662 3.63867 14.6709C4.00195 14.9756 4.44727 15.1279 4.97461 15.1279C5.57812 15.1279 6.0498 14.9697 6.38965 14.6533C6.73535 14.3311 6.9082 13.9062 6.9082 13.3789C6.9082 12.1016 6.20508 11.4629 4.79883 11.4629H3.4541V9.47656Z" transform="translate(15 10)" fill="white"/>
</svg>
